<svg xmlns="http://www.w3.org/2000/svg" viewBox="0 0 32 32">

<path fill="	#691a1be0" style="fill: var(--color1, #691a1be0)" d="M13.653 4.847s-3.653-1.813-6.48 1.153-1.907 5.293-3.84 6.467-2.793 4.987-0.38 6.1c0.609 0.32 1.331 0.508 2.097 0.508s1.488-0.188 2.122-0.52l-0.025 0.012z"></path>
<path fill="#943d3de3" style="fill: var(--color2, #943d3de3)" d="M3.333 14.667c1.907-1.173 1.020-3.527 3.813-6.48 0.997-1.051 2.404-1.704 3.963-1.704 0.584 0 1.147 0.092 1.675 0.262l-0.039-0.011 0.88-1.86s-3.627-1.84-6.453 1.127-1.907 5.293-3.84 6.467c-1.106 0.802-1.816 2.090-1.816 3.544 0 0.384 0.050 0.757 0.143 1.113l-0.007-0.030c0.263-1.009 0.862-1.85 1.667-2.418l0.013-0.009z"></path>
<path fill="none" stroke="#45413c" style="stroke: var(--color3, #45413c)" stroke-linejoin="round" stroke-linecap="round" stroke-miterlimit="4" stroke-width="0.6667" d="M13.653 4.847s-3.653-1.813-6.48 1.153-1.907 5.293-3.84 6.467-2.793 4.987-0.38 6.1c0.609 0.32 1.331 0.508 2.097 0.508s1.488-0.188 2.122-0.52l-0.025 0.012z"></path>
<path fill="#691a1be0" style="fill: var(--color1, #691a1be0)" d="M18.347 4.847s3.687-1.813 6.48 1.153 1.907 5.333 3.813 6.48 2.793 4.987 0.38 6.1c-0.609 0.32-1.331 0.508-2.097 0.508s-1.488-0.188-2.122-0.52l0.025 0.012z"></path>
<path fill="#943d3de3" style="fill: var(--color2, #943d3de3)" d="M28.667 14.667c-1.907-1.173-1.020-3.527-3.813-6.48-0.997-1.051-2.404-1.704-3.963-1.704-0.584 0-1.147 0.092-1.675 0.262l0.039-0.011-0.907-1.887s3.687-1.813 6.48 1.153 1.907 5.333 3.813 6.48c1.106 0.802 1.816 2.090 1.816 3.544 0 0.384-0.050 0.757-0.143 1.113l0.007-0.030c-0.251-1.012-0.841-1.858-1.641-2.431l-0.013-0.009z"></path>
<path fill="none" stroke="#45413c" style="stroke: var(--color3, #45413c)" stroke-linejoin="round" stroke-linecap="round" stroke-miterlimit="4" stroke-width="0.6667" d="M18.347 4.847s3.687-1.813 6.48 1.153 1.907 5.333 3.813 6.48 2.793 4.987 0.38 6.1c-0.609 0.32-1.331 0.508-2.097 0.508s-1.488-0.188-2.122-0.52l0.025 0.012z"></path>
<path fill="#f0f0f0" style="fill: var(--color4, #f0f0f0)" d="M24.667 12.453c0-4.12-3.953-8-8.307-8h-0.74c-4.353 0.013-8.287 3.88-8.287 8v0.78c-1.447 1.16-2 3.133-2 5.080 0 3.507 2.627 6 6.333 6h1.293c0.812 0.703 1.88 1.132 3.047 1.132s2.234-0.428 3.053-1.137l-0.006 0.005h1.293c3.707 0 6.333-2.467 6.333-6 0-1.947-0.54-3.92-2-5.080z"></path>
<path fill="#fff" style="fill: var(--color5, #fff)" d="M24.667 13.233v-0.78c0-4.12-3.953-8-8.307-8h-0.74c-4.353 0.013-8.287 3.88-8.287 8v0.78l0.553-1.373c1.324-3.058 4.267-5.183 7.719-5.3l0.014-0h0.76c3.63 0.115 6.691 2.435 7.894 5.66l0.020 0.060z"></path>
<path fill="#45413c" style="fill: var(--color3, #45413c)" opacity="0.15" d="M24.767 29.52c0 0.633-3.925 1.147-8.767 1.147s-8.767-0.513-8.767-1.147c0-0.633 3.925-1.147 8.767-1.147s8.767 0.513 8.767 1.147z"></path>
<path fill="#45413c" style="fill: var(--color3, #45413c); stroke: var(--color3, #45413c)" stroke="#45413c" stroke-linejoin="round" stroke-linecap="round" stroke-miterlimit="4" stroke-width="0.6667" d="M12.573 15.133c0 0.633-0.513 1.147-1.147 1.147s-1.147-0.513-1.147-1.147c0-0.633 0.513-1.147 1.147-1.147s1.147 0.513 1.147 1.147z"></path>
<path fill="#ff6196" style="fill: var(--color6, #ff6196)" d="M25.147 19.573c0 0.367-0.62 0.667-1.387 0.667s-1.387-0.3-1.387-0.667 0.62-0.667 1.387-0.667 1.387 0.3 1.387 0.667z"></path>
<path fill="#ff6196" style="fill: var(--color6, #ff6196)" d="M9.627 19.573c0 0.367-0.62 0.667-1.387 0.667s-1.387-0.3-1.387-0.667 0.62-0.667 1.387-0.667 1.387 0.3 1.387 0.667z"></path>
<path fill="#691a1be0" style="fill: var(--color1, #691a1be0)" d="M26 14.953c-0.318-0.686-0.769-1.261-1.325-1.713l-0.009-0.007v-0.78c-0.122-2.76-1.59-5.152-3.761-6.547l-0.033-0.020c-1.333 1.153-3.747 3.76-3.747 7.333 0 4.907 4.087 5.4 6.473 4.193 1.078-0.506 1.92-1.367 2.388-2.429l0.012-0.031z"></path>
<path fill="#943d3de3" style="fill: var(--color2, #943d3de3)" d="M24.667 13.233l-0.393-0.953c-0.858-2.262-2.543-4.045-4.677-5.011l-0.056-0.023c0.412-0.485 0.848-0.921 1.317-1.32l0.016-0.013c0.977 0.656 1.795 1.466 2.44 2.403l0.020 0.030c0.847 1.211 1.353 2.714 1.353 4.335 0 0.194-0.007 0.386-0.021 0.577l0.002-0.025z"></path>
<path fill="none" stroke="#45413c" style="stroke: var(--color3, #45413c)" stroke-linejoin="round" stroke-linecap="round" stroke-miterlimit="4" stroke-width="0.6667" d="M24.667 12.453c0-4.12-3.953-8-8.307-8h-0.74c-4.353 0.013-8.287 3.88-8.287 8v0.78c-1.447 1.16-2 3.133-2 5.080 0 3.507 2.627 6 6.333 6h1.293c0.812 0.703 1.88 1.132 3.047 1.132s2.234-0.428 3.053-1.137l-0.006 0.005h1.293c3.707 0 6.333-2.467 6.333-6 0-1.947-0.54-3.92-2-5.080z"></path>
<path fill="none" stroke="#45413c" style="stroke: var(--color3, #45413c)" stroke-linejoin="round" stroke-linecap="round" stroke-miterlimit="4" stroke-width="0.6667" d="M26 14.953c-0.318-0.686-0.769-1.261-1.325-1.713l-0.009-0.007v-0.78c-0.122-2.76-1.59-5.152-3.761-6.547l-0.033-0.020c-1.333 1.153-3.747 3.76-3.747 7.333 0 4.907 4.087 5.4 6.473 4.193 1.078-0.506 1.92-1.367 2.388-2.429l0.012-0.031z"></path>
<path fill="#45413c" style="fill: var(--color3, #45413c); stroke: var(--color3, #45413c)" stroke="#45413c" stroke-linejoin="round" stroke-linecap="round" stroke-miterlimit="4" stroke-width="0.6667" d="M21.72 15.133c0 0.633-0.513 1.147-1.147 1.147s-1.147-0.513-1.147-1.147c0-0.633 0.513-1.147 1.147-1.147s1.147 0.513 1.147 1.147z"></path>
<path fill="#656769" style="fill: var(--color7, #656769)" d="M18.287 19.333c-0.264 1.057-1.176 1.837-2.28 1.9l-0.007 0c-1.111-0.063-2.023-0.843-2.283-1.883l-0.004-0.017c0-0.627 1.027-1.14 2.287-1.14s2.287 0.507 2.287 1.14z"></path>
<path fill="#87898c" style="fill: var(--color8, #87898c)" d="M16 19.253c0.065-0.005 0.141-0.008 0.218-0.008 0.711 0 1.362 0.255 1.867 0.679l-0.005-0.004c0.114-0.172 0.189-0.379 0.206-0.602l0-0.005c0-0.627-1.027-1.14-2.287-1.14s-2.287 0.513-2.287 1.14c0.018 0.228 0.093 0.435 0.21 0.611l-0.003-0.005c0.5-0.42 1.152-0.675 1.862-0.675 0.077 0 0.153 0.003 0.228 0.009l-0.010-0.001z"></path>
<path fill="none" stroke="#45413c" style="stroke: var(--color3, #45413c)" stroke-linejoin="round" stroke-linecap="round" stroke-miterlimit="4" stroke-width="0.6667" d="M18.287 19.333c-0.264 1.057-1.176 1.837-2.28 1.9l-0.007 0c-1.111-0.063-2.023-0.843-2.283-1.883l-0.004-0.017c0-0.627 1.027-1.14 2.287-1.14s2.287 0.507 2.287 1.14z"></path>
<path fill="#87898c" style="fill: var(--color8, #87898c); stroke: var(--color3, #45413c)" stroke="#45413c" stroke-linejoin="round" stroke-linecap="round" stroke-miterlimit="4" stroke-width="0.6667" d="M12.953 24.287v-1.527c1.473 0 3.047-1.527 3.047-1.527s1.593 1.527 3.047 1.527v1.527s-0.347 1.52-3.047 1.52-3.047-1.52-3.047-1.52z"></path>
<path fill="#ff866e" style="fill: var(--color9, #ff866e)" d="M17.52 23.54c-1.16 0-1.48 0.587-1.52 0.667-0.040-0.093-0.36-0.667-1.52-0.667s-1.333 1.427-0.38 2.773c0.414 0.618 1.11 1.020 1.9 1.020s1.486-0.401 1.895-1.011l0.005-0.008c0.94-1.347 0.873-2.773-0.38-2.773z"></path>
<path fill="#ff6242" style="fill: var(--color10, #ff6242)" d="M14.48 24.353c1.16 0 1.48 0.593 1.52 0.667 0.040-0.087 0.36-0.667 1.52-0.667 0.026-0.003 0.057-0.004 0.088-0.004 0.419 0 0.773 0.281 0.884 0.664l0.002 0.006c0.173-0.833-0.127-1.48-0.973-1.48-1.16 0-1.48 0.587-1.52 0.667-0.040-0.093-0.36-0.667-1.52-0.667-0.847 0-1.147 0.667-0.973 1.48 0.112-0.39 0.466-0.671 0.886-0.671 0.031 0 0.061 0.002 0.092 0.005l-0.004-0z"></path>
<path fill="none" stroke="#45413c" style="stroke: var(--color3, #45413c)" stroke-linejoin="round" stroke-linecap="round" stroke-miterlimit="4" stroke-width="0.6667" d="M17.52 23.54c-1.16 0-1.48 0.587-1.52 0.667-0.040-0.093-0.36-0.667-1.52-0.667s-1.333 1.427-0.38 2.773c0.414 0.618 1.11 1.020 1.9 1.020s1.486-0.401 1.895-1.011l0.005-0.008c0.94-1.347 0.873-2.773-0.38-2.773z"></path>
<path fill="none" stroke="#45413c" style="stroke: var(--color3, #45413c)" stroke-linejoin="round" stroke-linecap="round" stroke-miterlimit="4" stroke-width="0.6667" d="M16 24.233v1.193"></path>
<path fill="#87898c" style="fill: var(--color8, #87898c); stroke: var(--color3, #45413c)" stroke="#45413c" stroke-linejoin="round" stroke-linecap="round" stroke-miterlimit="4" stroke-width="0.6667" d="M12.953 22.76c-0.010 0-0.022 0-0.033 0-0.421 0-0.809-0.143-1.117-0.383l0.004 0.003"></path>
<path fill="#87898c" style="fill: var(--color8, #87898c); stroke: var(--color3, #45413c)" stroke="#45413c" stroke-linejoin="round" stroke-linecap="round" stroke-miterlimit="4" stroke-width="0.6667" d="M19.047 22.76c0.010 0 0.022 0 0.033 0 0.421 0 0.809-0.143 1.117-0.383l-0.004 0.003"></path>

</svg>




